<svg xmlns="http://www.w3.org/2000/svg" xmlns:xlink="http://www.w3.org/1999/xlink" width="180" height="180" viewBox="0 0 180 180">
  <defs>
    <clipPath id="clip-path">
      <rect id="Rectangle_1793" data-name="Rectangle 1793" width="95.569" height="95.349" fill="#fff"/>
    </clipPath>
  </defs>
  <g id="Group_2045" data-name="Group 2045" transform="translate(-832 -9849)">
    <circle id="Ellipse_9" data-name="Ellipse 9" cx="90" cy="90" r="90" transform="translate(832 9849)" fill="#707070" opacity="0.749"/>
    <g id="Group_1468" data-name="Group 1468" transform="translate(874.215 9902.151)">
      <g id="Group_1467" data-name="Group 1467" transform="translate(0 0)" clip-path="url(#clip-path)">
        <path id="Path_22865" data-name="Path 22865" d="M95.569.579V75.5l-1.21.566-15.792,0v18.03a1.311,1.311,0,0,1-1.736,1.18l-6.178-4.809-5.961,4.7a1.246,1.246,0,0,1-1.821-.886V76.061H.749A2.535,2.535,0,0,1,0,75.5L.005.582A1.123,1.123,0,0,1,1.111.006H94.366ZM91.645,2.26H3.831L8.773,7.315c25.913.294,52.029.294,77.932,0ZM2.15,72.138l5.228-5.329c-.107-19.3.236-38.67-.172-57.926L2.15,3.941Zm91.177,0V3.941L88.1,9.27c.107,19.3-.236,38.67.173,57.926Zm-7.66-62.4H9.81V66.159H57.173a11.749,11.749,0,0,0,1.393-2.718c.07-1.024-.929-2.969-.456-4.006.341-.747,2.791-1.562,3.35-2.253.668-.824.892-3.5,2.07-3.723,1.11-.207,2.787.229,3.873-.05.878-.225,2.3-2.088,3.407-2.029.952.051,2.433,1.826,3.224,2.029,1.1.282,3.611-.322,4.363.309.672.564,1.012,2.763,1.58,3.464s3.009,1.506,3.35,2.253c.49,1.074-.659,3.14-.385,4.3a19.124,19.124,0,0,0,1.227,2.338c.369.224,1.062.039,1.5.091ZM76.855,55.914c-.328-.2-2.655.092-3.387-.071-.69-.154-2.389-1.864-2.808-1.8-.8.345-1.912,1.626-2.689,1.8-1.034.231-2.364-.161-3.425.126-.32.216-.81,2.52-1.356,3.033-.4.375-2.62,1.3-2.726,1.673.026.91.619,2.275.538,3.131-.073.78-1.214,2.161-1.427,3.005.034.577,1.821,1.827,2.133,2.473.406.836.261,2.443.434,3.4.112.136,2.871.59,3.4.942.505.338,1.557,2.394,2.1,2.445.98-.087,2.033-.92,3-.952,1.023-.034,2.278.863,3.328.925.328-.1,1.437-2.027,1.924-2.384.638-.466,3.237-.775,3.412-.978l.287-3.17,2.293-2.7c-.261-.917-1.348-2.111-1.434-3.015-.066-.693.653-2.962.473-3.248-.618-.545-2.344-1.145-2.81-1.686-.355-.411-1.062-2.836-1.25-2.952m-16.971,17.9a31.125,31.125,0,0,0-.27-3.187,6.274,6.274,0,0,0-2.07-2.227c-16.185.107-32.442-.235-48.584.172L3.831,73.819Zm31.762,0L86.41,68.5c-3.8-.958-5.048,2.07-4.855,5.321ZM76.138,77.182c-.537.395-.9,1.334-1.633,1.466-.939.169-2.875-1.126-3.863-1.083-.92.041-2.681,1.164-3.555,1.108-.831-.054-1.219-1.054-1.786-1.491V91.756c1.087-.512,4.463-3.927,5.32-3.941,1.17-.017,4.271,3.37,5.516,3.941Z" transform="translate(0 0)" fill="#fff"/>
        <path id="Path_22866" data-name="Path 22866" d="M50.52,40.547l40.5-.048c1.806.209,1.806,2.228,0,2.437H50.658a1.2,1.2,0,1,1-.138-2.388" transform="translate(-10.864 -8.909)" fill="#fff"/>
        <path id="Path_22867" data-name="Path 22867" d="M49.687,23.35c-.572-.574-.189-2.062.787-2.02H91.223c1.348.176,1.655,2.063.186,2.26l-40.748,0c-.289-.024-.769-.032-.975-.239" transform="translate(-10.872 -4.692)" fill="#fff"/>
        <path id="Path_22868" data-name="Path 22868" d="M60.6,31.87c.572.574.189,2.062-.787,2.02H19.066c-1.348-.176-1.655-2.063-.186-2.26l40.748,0c.289.024.769.032.975.239" transform="translate(-3.94 -6.958)" fill="#fff"/>
        <path id="Path_22869" data-name="Path 22869" d="M18.737,49.642l32.48-.048a1.219,1.219,0,0,1,.829,1.97l-.835.285-32.9-.176c-.767-.737-.385-1.545.426-2.03" transform="translate(-3.937 -10.91)" fill="#fff"/>
        <path id="Path_22870" data-name="Path 22870" d="M39.618,58.742,67.43,58.7a1.132,1.132,0,0,1-.193,2.255h-27.1a1.154,1.154,0,0,1-.521-2.21" transform="translate(-8.565 -12.913)" fill="#fff"/>
        <path id="Path_22871" data-name="Path 22871" d="M24.359,75.248c-.722,1.339-.961,4.9-3.153,3.477l-.2-1.118c.776-1.456,4.039-11.251,4.82-11.633s1.345.051,1.72.711a91.4,91.4,0,0,1,4.217,10.73c.358,1.839-1.376,2.288-2.155.847-.29-.536-.866-2.87-1.282-3.015Zm3.15-2.456-1.026-2.613a8.337,8.337,0,0,0-1.028,2.614Z" transform="translate(-4.621 -14.482)" fill="#fff"/>
        <path id="Path_22872" data-name="Path 22872" d="M18.926,40.545l16.215-.04c1.836,0,2.082,2.216.191,2.433-4.966.571-11-.438-16.076,0-1.6-.186-1.883-1.849-.33-2.393" transform="translate(-3.937 -8.911)" fill="#fff"/>
        <path id="Path_22873" data-name="Path 22873" d="M18.737,21.377l16.787-.048a1.128,1.128,0,1,1-.007,2.255l-17.205-.176c-.767-.737-.385-1.545.426-2.03" transform="translate(-3.937 -4.692)" fill="#fff"/>
        <path id="Path_22874" data-name="Path 22874" d="M81.267,31.694l17.535.132a1.2,1.2,0,0,1-.751,2.079H81.591c-1.227-.1-1.632-1.92-.324-2.211" transform="translate(-17.7 -6.972)" fill="#fff"/>
        <path id="Path_22875" data-name="Path 22875" d="M68.089,49.648l13.4-.027a1.145,1.145,0,0,1,.583,2.055l-14.02.171c-1.1-.4-.977-1.687.034-2.2" transform="translate(-14.801 -10.916)" fill="#fff"/>
        <path id="Path_22876" data-name="Path 22876" d="M18.278,60.714a1.144,1.144,0,0,1,.789-2.01l11.21.009a1.161,1.161,0,0,1,.281,2.14c-3.6-.059-7.737.411-11.308.105a1.672,1.672,0,0,1-.972-.243" transform="translate(-3.936 -12.914)" fill="#fff"/>
        <path id="Path_22877" data-name="Path 22877" d="M34.412,65.356c2.538-.4,2.567,2.576,0,2.24.42,2.494-2.6,2.493-2.24,0-2.492.36-2.5-2.66,0-2.24-.336-2.565,2.643-2.541,2.24,0" transform="translate(-6.666 -13.956)" fill="#fff"/>
        <path id="Path_22878" data-name="Path 22878" d="M95.652,81.408A6.955,6.955,0,1,1,88.7,74.453a6.956,6.956,0,0,1,6.955,6.955m-2.274,0a4.684,4.684,0,1,0-4.685,4.685,4.685,4.685,0,0,0,4.685-4.685" transform="translate(-17.982 -16.379)" fill="#fff"/>
      </g>
    </g>
  </g>
</svg>
