<svg xmlns="http://www.w3.org/2000/svg" xmlns:xlink="http://www.w3.org/1999/xlink" width="180" height="180" viewBox="0 0 180 180">
  <defs>
    <clipPath id="clip-path">
      <rect id="Rectangle_195" data-name="Rectangle 195" width="79.025" height="91.583" fill="#fff"/>
    </clipPath>
  </defs>
  <g id="Group_2046" data-name="Group 2046" transform="translate(-1112 -9849)">
    <circle id="Ellipse_10" data-name="Ellipse 10" cx="90" cy="90" r="90" transform="translate(1112 9849)" fill="#269bff"/>
    <g id="Group_133" data-name="Group 133" transform="translate(1168.476 9894.151)">
      <g id="Group_132" data-name="Group 132" clip-path="url(#clip-path)">
        <path id="Path_222" data-name="Path 222" d="M66.378,23.624,78.527,27.2l.4.589.1,30.178c-.493,8.516-5.837,14.066-12.633,18.415l-.028,13.815a1.527,1.527,0,0,1-.983,1.39H.89L0,90.693V.89L.89,0h55L66.271,10.382ZM53.7,3.076H3.076V88.508H63.195V78.224l-7.174,3.8-1.015.151C44.771,76.681,32.368,71.553,31.543,58.161c-.6-9.672.473-19.947,0-29.683-.017-1.1.531-1.383,1.436-1.728,6.839-2.6,15.052-3.8,22.036-6.259l8.179,2.162V12.568h-8.4A2.462,2.462,0,0,1,53.7,11.481ZM60.821,9.4,56.866,5.449V9.4Zm15,20.2L55.185,23.824,34.743,29.6l-.034,27.965c.332,10.542,10.867,16.41,19.257,20.493a3.294,3.294,0,0,0,1.4.558A62.7,62.7,0,0,0,61.35,75.49c7.349-4.156,13.86-8.454,14.5-17.736Z" fill="#fff"/>
        <path id="Path_223" data-name="Path 223" d="M36.663,35.626l22.7-.046a1.589,1.589,0,0,1,0,3.173H37.012a1.6,1.6,0,0,1-.349-3.126" transform="translate(-26.129 -26.18)" fill="#fff"/>
        <path id="Path_224" data-name="Path 224" d="M36.663,71.556l22.7-.046a1.589,1.589,0,0,1,0,3.173H37.012a1.6,1.6,0,0,1-.349-3.126" transform="translate(-26.129 -52.618)" fill="#fff"/>
        <path id="Path_225" data-name="Path 225" d="M36.663,275.159l19.54-.047a1.588,1.588,0,0,1,0,3.173c-5.921.685-13.132-.524-19.191,0a1.6,1.6,0,0,1-.349-3.126" transform="translate(-26.129 -202.429)" fill="#fff"/>
        <path id="Path_226" data-name="Path 226" d="M36.678,179.391l13.394-.031a1.6,1.6,0,0,1,0,3.141c-3.866.6-9.2-.416-13.226,0a1.6,1.6,0,0,1-.167-3.11" transform="translate(-26.144 -131.974)" fill="#fff"/>
        <path id="Path_227" data-name="Path 227" d="M36.678,203.344l13.394-.031a1.6,1.6,0,0,1,0,3.141c-3.866.6-9.2-.416-13.226,0a1.6,1.6,0,0,1-.167-3.11" transform="translate(-26.144 -149.599)" fill="#fff"/>
        <path id="Path_228" data-name="Path 228" d="M36.678,299.157l13.394-.031a1.6,1.6,0,0,1,0,3.141c-3.866.6-9.2-.416-13.226,0a1.6,1.6,0,0,1-.167-3.11" transform="translate(-26.144 -220.099)" fill="#fff"/>
        <path id="Path_229" data-name="Path 229" d="M36.678,119.508l10.23-.031a1.6,1.6,0,0,1,0,3.141,69.482,69.482,0,0,1-10.062,0,1.6,1.6,0,0,1-.167-3.11" transform="translate(-26.144 -87.912)" fill="#fff"/>
        <path id="Path_230" data-name="Path 230" d="M36.7,95.273a49.8,49.8,0,0,1,7.233,0,1.6,1.6,0,0,1-.167,3.11,46.978,46.978,0,0,1-7.065-.03,1.611,1.611,0,0,1,0-3.08" transform="translate(-26.17 -70.006)" fill="#fff"/>
        <path id="Path_231" data-name="Path 231" d="M72.633,143.18a49.8,49.8,0,0,1,7.233,0,1.6,1.6,0,0,1-.167,3.11,46.982,46.982,0,0,1-7.065-.03,1.611,1.611,0,0,1,0-3.08" transform="translate(-52.607 -105.256)" fill="#fff"/>
        <path id="Path_232" data-name="Path 232" d="M84.608,95.372a18.851,18.851,0,0,1,4.22.046,1.608,1.608,0,0,1-.319,3.064,19.019,19.019,0,0,1-4.053-.077,1.617,1.617,0,0,1,.151-3.033" transform="translate(-61.418 -70.105)" fill="#fff"/>
        <path id="Path_233" data-name="Path 233" d="M36.7,143.279a18.851,18.851,0,0,1,4.22.046,1.608,1.608,0,0,1-.319,3.064,19.019,19.019,0,0,1-4.053-.077,1.617,1.617,0,0,1,.151-3.033" transform="translate(-26.168 -105.355)" fill="#fff"/>
        <path id="Path_234" data-name="Path 234" d="M96.589,119.429a1.607,1.607,0,0,1,.9,3.086,1.607,1.607,0,0,1-.9-3.086" transform="translate(-70.232 -87.837)" fill="#fff"/>
        <path id="Path_235" data-name="Path 235" d="M158.952,125.417C172.918,124.1,182.87,138.8,176.033,151.2c-6.61,11.984-24.119,11.929-30.592-.129-5.829-10.857,1.218-24.5,13.511-25.653m.594,3.164c-18.44,1.6-16.33,29.52,2.114,28.416,18.77-1.124,16.838-30.062-2.114-28.416" transform="translate(-105.488 -92.222)" fill="#fff"/>
        <path id="Path_236" data-name="Path 236" d="M177.419,149.361a11.252,11.252,0,0,1,7.223,1.566c1.2.715,3.523,2.244,2.12,3.822-1.316,1.479-2.639-.411-3.7-1.057a7.892,7.892,0,1,0,0,13.377c.986-.6,2.772-2.771,3.868-.833,1.143,2.022-2.73,4.033-4.277,4.577-15.695,5.518-20.967-19.666-5.236-21.453" transform="translate(-123.564 -109.843)" fill="#fff"/>
      </g>
    </g>
  </g>
</svg>
