<svg xmlns="http://www.w3.org/2000/svg" xmlns:xlink="http://www.w3.org/1999/xlink" width="180" height="180" viewBox="0 0 180 180">
  <defs>
    <clipPath id="clip-path">
      <rect id="Rectangle_590" data-name="Rectangle 590" width="102" height="99.087" fill="#fff"/>
    </clipPath>
  </defs>
  <g id="Group_2047" data-name="Group 2047" transform="translate(-1444 -9849)">
    <circle id="Ellipse_11" data-name="Ellipse 11" cx="90" cy="90" r="90" transform="translate(1444 9849)" fill="#f7941d"/>
    <g id="Group_432" data-name="Group 432" transform="translate(1493 9890.413)">
      <g id="Group_431" data-name="Group 431" transform="translate(0 0)" clip-path="url(#clip-path)">
        <path id="Path_4401" data-name="Path 4401" d="M64.538,8.231c4.119-.353,8.012.11,8.433,5.027l.082,26.43a21.862,21.862,0,0,1,16.1,29.839,25.737,25.737,0,0,1-4.446,6.792l1.926,2.4c1.3-1.4,3.16-2.426,4.838-.931,2.868,3.959,6.287,7.676,9.117,11.642,1.4,1.963,2.262,2.986.125,5.015A47.055,47.055,0,0,1,95.4,98.582a2.522,2.522,0,0,1-2.847.115C88.681,94.484,85.359,89.7,81.8,85.2c-.994-2.02.421-3.371,2.069-4.331L82.11,78.534a20.47,20.47,0,0,1-8.948,3.98c-.3.992-.2,1.907-.55,2.944a5.019,5.019,0,0,1-3.385,3.193l-56.557.118c-4.009-.762-4.6-4.479-4.234-7.994C4.777,81.043.548,80.544,0,76.16V4.829A5.127,5.127,0,0,1,4.425.009L59.716,0a5.226,5.226,0,0,1,4.521,3.5c.049.162.3,1.465.3,1.549Zm-3.494,0v-3.8c0-.527-1.394-1.253-1.942-1.14L4.375,3.454A1.943,1.943,0,0,0,3.287,5.24v70.1c-.12.6.536,1.944,1.14,1.944H8.433V12.237c0-1.211,2.572-4.006,3.8-4.006ZM18.195,72.76H50.564a24.161,24.161,0,0,1-2.8-6.588H18.209c-.741-.014-1.387-1.056-1.347-1.721.028-.484.938-1.556,1.333-1.556h29.08a31.243,31.243,0,0,1,.411-6.576H17.99a4.892,4.892,0,0,1-.724-.562c-.823-1.1-.214-2.212.933-2.72L48.58,53a40.768,40.768,0,0,1,4.244-6.545H44.5c-1.044,0-1.947-2.8.045-3.244l12.073-.052a23.828,23.828,0,0,1,12.853-3.9l-.193-27.039-.682-.548-55.649-.066L11.814,12.74V84.28l.987,1.067,55.134.16c1.587-.188,1.665-1.293,1.535-2.678a20.8,20.8,0,0,1-13.427-4.143c-1.1-.816-1.987-1.867-3.122-2.633l-34.713-.016c-1.909-.3-1.528-2.951-.014-3.277M87.473,61.141A18.467,18.467,0,1,0,69.005,79.609,18.468,18.468,0,0,0,87.473,61.141m2,19.462L85.033,84.08l8.981,11.466,4.439-3.477Z" transform="translate(0 0)" fill="#fff"/>
        <path id="Path_4402" data-name="Path 4402" d="M10.767,9.778c4.756.36,10.73-.658,15.345-.031a4.429,4.429,0,0,1,3.623,3.776c.463,5.238-.367,11.142,0,16.455a4.565,4.565,0,0,1-3.806,3.59,102.137,102.137,0,0,1-14.4.009,4.546,4.546,0,0,1-4.2-4.225,108.727,108.727,0,0,1,0-15.409,4.656,4.656,0,0,1,3.437-4.166m15.418,3.494a2,2,0,0,0-1.072-.263,97.8,97.8,0,0,0-12.966,0,1.65,1.65,0,0,0-1.227.418c.056,1.94-.482,15.964.1,16.551a1.856,1.856,0,0,0,1.126.313,96.645,96.645,0,0,0,12.968,0c.853-.082,1.347-.374,1.338-1.335-.327-4.735.388-9.938,0-14.614a2,2,0,0,0-.263-1.072" transform="translate(9.534 12.887)" fill="#fff"/>
        <path id="Path_4403" data-name="Path 4403" d="M39.574,16.991a2.8,2.8,0,0,1-1.474.48c-5.744.522-12.27-.416-18.1-.007a1.669,1.669,0,0,1-.214-3.3l18.719.007a1.659,1.659,0,0,1,1.067,2.824" transform="translate(24.908 19.131)" fill="#fff"/>
        <path id="Path_4404" data-name="Path 4404" d="M19.454,9.987l19.786.063a1.728,1.728,0,0,1-.917,3.188c-5.734-.482-12.479.628-18.089,0-2.031-.23-2.452-2.2-.781-3.247" transform="translate(24.885 13.493)" fill="#fff"/>
        <path id="Path_4405" data-name="Path 4405" d="M52.623,34.5A14.78,14.78,0,1,1,37.844,19.72,14.779,14.779,0,0,1,52.623,34.5m-3.343,0a11.439,11.439,0,1,0-11.44,11.44A11.44,11.44,0,0,0,49.279,34.5" transform="translate(31.159 26.643)" fill="#fff"/>
        <path id="Path_4406" data-name="Path 4406" d="M30.687,22.247a8.965,8.965,0,0,1,8.887,5.788c.433,1.288.55,3.165-1.345,3.165-1.622,0-1.561-1.62-2.055-2.643A5.359,5.359,0,0,0,32.458,25.7c-1.479-.2-4.018.668-4.366-1.408-.247-1.491,1.481-1.951,2.6-2.043" transform="translate(37.921 30.024)" fill="#fff"/>
      </g>
    </g>
  </g>
</svg>
