<svg xmlns="http://www.w3.org/2000/svg" xmlns:xlink="http://www.w3.org/1999/xlink" width="180" height="180" viewBox="0 0 180 180">
  <defs>
    <clipPath id="clip-path">
      <rect id="Rectangle_197" data-name="Rectangle 197" width="75" height="90.537" fill="#fff"/>
    </clipPath>
  </defs>
  <g id="Group_2048" data-name="Group 2048" transform="translate(-867 -10173)">
    <circle id="Ellipse_11" data-name="Ellipse 11" cx="90" cy="90" r="90" transform="translate(867 10173)" fill="#f04e30"/>
    <g id="Group_137" data-name="Group 137" transform="translate(919.5 10220)">
      <g id="Group_136" data-name="Group 136" clip-path="url(#clip-path)">
        <path id="Path_238" data-name="Path 238" d="M62.6,0c.216.187.884.718.884.972V5.657H68.17a3.775,3.775,0,0,1,.972.8V11.4l.265.265H74.18c.308,0,.934,1.282.8,1.673V68.328c-.249,2.675-2.835,1.754-2.835.524V14.318H69.142V55.064a4.752,4.752,0,0,1-.71.7c-.663.306-1.941-.238-1.941-.88V8.308H63.486V43.751c0,.643-1.278,1.187-1.942.88a4.775,4.775,0,0,1-.71-.7V2.651H2.853V76.188H60.834V49.054a3.325,3.325,0,0,1,.752-.662,1.325,1.325,0,0,1,1.9,1.188l.005,28.12c.143.284-.732,1.14-.8,1.14H8.51v3.182H66.491V60.367c0-.939,2.422-1.637,2.66.168l-.174,23.532a3.4,3.4,0,0,1-.808.607h-54v3.182H72.147V74.862a1.419,1.419,0,0,1,2.818.01l.014,14.136c-.082.593-.363,1.315-1.014,1.461l-60.956.046a1.582,1.582,0,0,1-1.494-.981V84.673H6.831a3.786,3.786,0,0,1-.972-.8V79.1l-.265-.265H.82c-.309,0-.934-1.282-.8-1.673V1.849A1.871,1.871,0,0,1,.909,0Z" transform="translate(0)" fill="#fff"/>
        <path id="Path_239" data-name="Path 239" d="M12.709,11.225l17.816-.047c1.013.186,1.411.456,1.506,1.5.712,7.74-.556,16.557,0,24.411-.016,1.025-.533,1.414-1.5,1.5-5.615.51-11.993-.4-17.689,0l-1.231-.714L11.514,12.5a1.285,1.285,0,0,1,1.2-1.279m16.663,2.786H14.17V35.93h15.2Z" transform="translate(-4.599 -4.465)" fill="#fff"/>
        <path id="Path_240" data-name="Path 240" d="M52.175,11.589a2.187,2.187,0,0,1,1.261-.419l22.775.047a1.672,1.672,0,0,1,1.17,1.481,38.822,38.822,0,0,1-.022,6.133,1.693,1.693,0,0,1-1.461,1.19l-23.084-.08A1.239,1.239,0,0,1,51.762,18.7a41.627,41.627,0,0,1,0-6.2,1.655,1.655,0,0,1,.417-.909m22.394,2.418H54.417V17.1l.265.265H74.569Z" transform="translate(-20.629 -4.462)" fill="#fff"/>
        <path id="Path_241" data-name="Path 241" d="M35.333,73.628,68.7,73.587c2.328.261,2.03,2.815-.17,2.835l-32.886-.007a1.4,1.4,0,1,1-.312-2.787" transform="translate(-13.612 -29.394)" fill="#fff"/>
        <path id="Path_242" data-name="Path 242" d="M35.514,105.712l32.839-.053c2.211-.1,2.779,2.351.528,2.838H35.464a1.393,1.393,0,1,1,.05-2.785" transform="translate(-13.611 -42.204)" fill="#fff"/>
        <path id="Path_243" data-name="Path 243" d="M69.966,86.718a2.394,2.394,0,0,1-.605.362L34.85,87.035a1.341,1.341,0,0,1,.435-2.563l34.34.137a1.344,1.344,0,0,1,.342,2.109" transform="translate(-13.609 -33.742)" fill="#fff"/>
        <path id="Path_244" data-name="Path 244" d="M69.963,63.4a1.344,1.344,0,0,1-.342,2.109l-34.34.137a1.333,1.333,0,0,1,.176-2.659l33.9.052a2.394,2.394,0,0,1,.605.362" transform="translate(-13.606 -25.158)" fill="#fff"/>
        <path id="Path_245" data-name="Path 245" d="M35.169,95.108l33.73-.041c1.788.209,2.012,2.449.177,2.66H35.306a1.327,1.327,0,0,1-.136-2.618" transform="translate(-13.63 -37.974)" fill="#fff"/>
        <path id="Path_246" data-name="Path 246" d="M52.253,41.765a2.406,2.406,0,0,1,1.267-.413c7.128-.647,15.231.507,22.463.005A1.422,1.422,0,1,1,75.8,44.19H53.529c-1.264.025-2.256-1.441-1.276-2.425" transform="translate(-20.714 -16.437)" fill="#fff"/>
        <path id="Path_247" data-name="Path 247" d="M52.854,32.12l23.3-.041a1.331,1.331,0,0,1,0,2.659H53.166a1.328,1.328,0,0,1-.312-2.618" transform="translate(-20.708 -12.814)" fill="#fff"/>
        <path id="Path_248" data-name="Path 248" d="M77.078,54.636a2.408,2.408,0,0,1-1.267.412c-7.184.653-15.351-.51-22.64-.005a1.34,1.34,0,0,1-.182-2.664l23.17,0a1.337,1.337,0,0,1,.919,2.253" transform="translate(-20.713 -20.923)" fill="#fff"/>
        <path id="Path_249" data-name="Path 249" d="M12.69,73.556a44.311,44.311,0,0,1,7.34,0,1.39,1.39,0,0,1-.151,2.77A43.918,43.918,0,0,1,12.69,76.3a1.381,1.381,0,0,1,0-2.744" transform="translate(-4.58 -29.321)" fill="#fff"/>
        <path id="Path_250" data-name="Path 250" d="M12.862,105.64a40.268,40.268,0,0,1,6.986,0c1.9.316,1.811,2.523.209,2.776a47.054,47.054,0,0,1-7.372-.032c-1.646-.294-1.7-2.432.177-2.744" transform="translate(-4.575 -42.137)" fill="#fff"/>
        <path id="Path_251" data-name="Path 251" d="M12.507,95.052a58.459,58.459,0,0,1,7.7,0,1.336,1.336,0,0,1,.026,2.6c-2.3.363-5.5-.216-7.906-.027a1.351,1.351,0,0,1,.176-2.576" transform="translate(-4.579 -37.917)" fill="#fff"/>
        <path id="Path_252" data-name="Path 252" d="M12.517,62.968a58.461,58.461,0,0,1,7.7,0,1.336,1.336,0,0,1,.026,2.6,57.246,57.246,0,0,1-7.763.007,1.348,1.348,0,0,1,.033-2.611" transform="translate(-4.589 -25.101)" fill="#fff"/>
        <path id="Path_253" data-name="Path 253" d="M12.334,84.538h8.057c1.246.286,1.172,2.367-.326,2.6a53.961,53.961,0,0,1-7.554-.027,1.353,1.353,0,0,1-.178-2.578" transform="translate(-4.583 -33.768)" fill="#fff"/>
      </g>
    </g>
  </g>
</svg>
