<svg width="251" height="58" viewBox="0 0 251 58" fill="none" xmlns="http://www.w3.org/2000/svg">
<path fill-rule="evenodd" clip-rule="evenodd" d="M63.2487 48.8233H57.141V53.9759H55.4851V42.4531H57.141V47.2912H63.2487V42.4531H64.9046V53.9759H63.2487V48.8233Z" fill="#003873"/>
<path fill-rule="evenodd" clip-rule="evenodd" d="M68.1857 49.1949H73.0688C73.0379 48.0902 72.3217 46.7032 70.6349 46.7032C68.9482 46.7032 68.2704 48.0499 68.1857 49.1949ZM70.6349 45.4211C73.0379 45.4211 74.5244 47.3725 74.5244 49.9287V50.3076H68.2011C68.3166 51.7268 69.3102 52.896 70.9199 52.896C71.7671 52.896 72.6914 52.5493 73.2844 51.9123L73.9776 52.9283C73.1843 53.7427 72.0598 54.1701 70.7659 54.1701C68.3782 54.1701 66.6222 52.4042 66.6222 49.7835C66.6222 47.3645 68.2935 45.4131 70.6272 45.4131L70.6349 45.4211Z" fill="#003873"/>
<path fill-rule="evenodd" clip-rule="evenodd" d="M81.2021 50.7267C80.7554 50.1058 79.9775 49.7752 79.1456 49.7752C78.0674 49.7752 77.3049 50.4525 77.3049 51.4363C77.3049 52.42 78.0674 53.0974 79.1456 53.0974C79.9775 53.0974 80.7554 52.7668 81.2021 52.1459V50.7267ZM81.2021 53.0651C80.5705 53.7908 79.6617 54.186 78.5834 54.186C77.2587 54.186 75.803 53.2506 75.803 51.4202C75.803 49.5897 77.2433 48.6866 78.5834 48.6866C79.6617 48.6866 80.5859 49.0495 81.2021 49.7913V48.4125C81.2021 47.3723 80.3934 46.7514 79.2458 46.7514C78.3369 46.7514 77.559 47.1142 76.8427 47.8561L76.1958 46.7836C77.0892 45.8644 78.1829 45.4209 79.4768 45.4209C81.2175 45.4209 82.6886 46.2192 82.6886 48.3399V53.9763H81.1944V53.0571L81.2021 53.0651Z" fill="#003873"/>
<path d="M86.6397 42.4531H85.1455V53.984H86.6397V42.4531Z" fill="#003873"/>
<path fill-rule="evenodd" clip-rule="evenodd" d="M89.5664 52.1298V46.9933H88.2417V45.6306H89.5664V43.3486H91.0606V45.6306H92.6857V46.9933H91.0606V51.7831C91.0606 52.3717 91.3225 52.7991 91.8385 52.7991C92.1851 52.7991 92.5009 52.6459 92.6472 52.4685L93.0246 53.6457C92.7089 53.9602 92.2467 54.1779 91.4688 54.1779C90.2134 54.1779 89.5664 53.4361 89.5664 52.1217V52.1298Z" fill="#003873"/>
<path fill-rule="evenodd" clip-rule="evenodd" d="M100.033 48.6056C100.033 47.2187 99.3556 46.8074 98.3235 46.8074C97.3993 46.8074 96.5521 47.3961 96.1208 48.017V53.984H94.6266V42.4531H96.1208V46.8074C96.6522 46.1301 97.7305 45.4205 98.9551 45.4205C100.665 45.4205 101.52 46.3156 101.52 48.0815V53.9759H100.026V48.5975L100.033 48.6056Z" fill="#003873"/>
<path fill-rule="evenodd" clip-rule="evenodd" d="M107.358 45.4209C108.868 45.4209 109.776 46.0821 110.354 46.8885L109.361 47.84C108.883 47.1304 108.236 46.7998 107.42 46.7998C105.848 46.7998 104.832 48.0577 104.832 49.7913C104.832 51.525 105.841 52.799 107.42 52.799C108.228 52.799 108.875 52.4523 109.361 51.7588L110.354 52.7103C109.776 53.5247 108.86 54.1779 107.358 54.1779C104.94 54.1779 103.284 52.291 103.284 49.7913C103.284 47.2916 104.94 45.4209 107.358 45.4209Z" fill="#003873"/>
<path fill-rule="evenodd" clip-rule="evenodd" d="M117.062 50.7267C116.616 50.1058 115.838 49.7752 115.006 49.7752C113.928 49.7752 113.165 50.4525 113.165 51.4363C113.165 52.42 113.928 53.0974 115.006 53.0974C115.838 53.0974 116.616 52.7668 117.062 52.1459V50.7267ZM117.062 53.0651C116.431 53.7908 115.522 54.186 114.444 54.186C113.119 54.186 111.663 53.2506 111.663 51.4202C111.663 49.5897 113.104 48.6866 114.444 48.6866C115.522 48.6866 116.446 49.0495 117.062 49.7913V48.4125C117.062 47.3723 116.254 46.7514 115.106 46.7514C114.197 46.7514 113.419 47.1142 112.703 47.8561L112.056 46.7836C112.95 45.8644 114.043 45.4209 115.337 45.4209C117.078 45.4209 118.549 46.2192 118.549 48.3399V53.9763H117.055V53.0571L117.062 53.0651Z" fill="#003873"/>
<path fill-rule="evenodd" clip-rule="evenodd" d="M120.975 45.6308H122.469V46.9129C123.085 46.0823 124.025 45.4453 125.088 45.4453V47.0177C124.942 46.9854 124.772 46.9693 124.572 46.9693C123.825 46.9693 122.816 47.558 122.469 48.1788V53.9846H120.975V45.6388V45.6308Z" fill="#003873"/>
<path fill-rule="evenodd" clip-rule="evenodd" d="M127.414 49.1949H132.297C132.266 48.0902 131.55 46.7032 129.863 46.7032C128.176 46.7032 127.499 48.0499 127.414 49.1949ZM129.863 45.4211C132.266 45.4211 133.753 47.3725 133.753 49.9287V50.3076H127.429C127.545 51.7268 128.538 52.896 130.148 52.896C130.995 52.896 131.92 52.5493 132.52 51.9123L133.214 52.9283C132.42 53.7427 131.296 54.1701 130.002 54.1701C127.614 54.1701 125.858 52.4042 125.858 49.7835C125.858 47.3645 127.529 45.4131 129.863 45.4131V45.4211Z" fill="#003873"/>
<path fill-rule="evenodd" clip-rule="evenodd" d="M0 1.03125V40.7844C0 42.6471 0.870324 44.4049 2.3414 45.4935L12.947 53.3716C13.9098 54.0892 15.0651 54.4682 16.2512 54.4682H26.4332C27.6193 54.4682 28.7746 54.0812 29.7374 53.3716L40.343 45.4935C41.8141 44.4049 42.6844 42.6471 42.6844 40.7844V1.03125H0Z" fill="#003873"/>
<path fill-rule="evenodd" clip-rule="evenodd" d="M113.25 21.8109H104.824L109.037 9.75598L113.25 21.8109ZM113.096 1.03125H104.94L91.8616 35.148H100.211L102.675 28.0602H115.422L117.879 35.148H126.228L113.096 1.03125Z" fill="#003873"/>
<path fill-rule="evenodd" clip-rule="evenodd" d="M146.838 17.6179L158.199 1.03125H148.864L141.709 12.0863L134.461 1.03125H125.227L136.587 17.6663L124.495 35.148H133.722L141.709 23.2866L149.65 35.148H158.93L146.838 17.6179Z" fill="#003873"/>
<path fill-rule="evenodd" clip-rule="evenodd" d="M82.057 1.03125L72.3294 15.3279L62.6094 1.03125H55.4851V35.148H63.164V13.8926L72.3371 26.8668L81.5024 13.8926V35.148H89.1813V1.03125H82.057Z" fill="#003873"/>
<path fill-rule="evenodd" clip-rule="evenodd" d="M29.876 35.1883V44.0985L21.3421 35.1883L12.8083 44.0985V35.1883H4.26685L10.6595 28.5197C12.0304 27.0844 13.8943 26.2861 15.8352 26.2861H26.8414C28.7823 26.2861 30.6462 27.0925 32.0171 28.5197L38.4098 35.1883H29.876Z" fill="#2DBDB6"/>
<path fill-rule="evenodd" clip-rule="evenodd" d="M32.0171 23.4645C30.6461 24.8998 28.7823 25.6981 26.8414 25.6981H15.8352C13.8943 25.6981 12.0304 24.8917 10.6595 23.4645L4.26685 16.7959H12.8006V7.88574L21.3344 16.7959L29.8682 7.88574V16.7959H38.4021L32.0094 23.4645H32.0171Z" fill="#2DBDB6"/>
<path fill-rule="evenodd" clip-rule="evenodd" d="M28.0583 23.794H23.645V19.1816H19.432V23.794H15.0111V28.1886H19.432V32.7929H23.645V28.1886H28.0583V23.794Z" fill="white"/>
<path d="M197.923 41.874H196.917V39.9389L195.095 37.146H196.243L197.42 39.0457L198.582 37.146H199.731L197.923 39.9389V41.874ZM203.513 41.874H200.167V37.146H203.513V38.0321H201.174V39.0315H203.463V39.9176H201.174V40.988H203.513V41.874ZM208.709 41.874H207.56L207.27 41.073H205.242L204.945 41.874H203.796L205.625 37.146H206.887L208.709 41.874ZM206.993 40.187L206.256 38.1526L205.519 40.187H206.993ZM212.973 41.874H211.818L210.889 40.194H210.152V41.874H209.145V37.146H211.357C211.844 37.146 212.229 37.2878 212.512 37.5713C212.801 37.8548 212.945 38.2211 212.945 38.67C212.945 39.0575 212.843 39.3718 212.64 39.6128C212.441 39.8538 212.198 40.0074 211.91 40.0735L212.973 41.874ZM211.208 39.308C211.416 39.308 211.586 39.2513 211.718 39.1379C211.851 39.0197 211.917 38.8638 211.917 38.67C211.917 38.4763 211.851 38.3227 211.718 38.2093C211.586 38.0911 211.416 38.0321 211.208 38.0321H210.152V39.308H211.208ZM215.38 41.9591C214.539 41.9591 213.873 41.7086 213.381 41.2077L213.927 40.4421C214.333 40.8675 214.834 41.0801 215.43 41.0801C215.69 41.0801 215.891 41.0305 216.032 40.9313C216.179 40.8273 216.252 40.7021 216.252 40.5556C216.252 40.428 216.184 40.3216 216.047 40.2366C215.914 40.1515 215.746 40.0901 215.543 40.0523C215.345 40.0145 215.127 39.9601 214.891 39.8892C214.655 39.8184 214.435 39.738 214.232 39.6482C214.033 39.5584 213.866 39.4167 213.729 39.2229C213.596 39.0292 213.53 38.7929 213.53 38.5141C213.53 38.1077 213.693 37.7674 214.019 37.4933C214.345 37.2145 214.78 37.0751 215.323 37.0751C216.075 37.0751 216.689 37.2948 217.166 37.7343L216.607 38.4715C216.233 38.1266 215.775 37.9541 215.231 37.9541C215.019 37.9541 214.853 37.9966 214.735 38.0817C214.617 38.1667 214.558 38.2825 214.558 38.429C214.558 38.5424 214.624 38.6393 214.756 38.7196C214.893 38.7952 215.061 38.852 215.26 38.8898C215.463 38.9276 215.68 38.9843 215.912 39.0599C216.148 39.1308 216.365 39.2135 216.564 39.308C216.767 39.3978 216.935 39.5419 217.067 39.7404C217.204 39.9341 217.273 40.1681 217.273 40.4421C217.273 40.8958 217.11 41.262 216.784 41.5409C216.462 41.8197 215.995 41.9591 215.38 41.9591ZM222.004 41.9591C221.291 41.9591 220.7 41.7299 220.232 41.2715C219.769 40.8084 219.537 40.2224 219.537 39.5136C219.537 38.8047 219.769 38.2211 220.232 37.7627C220.7 37.2996 221.291 37.068 222.004 37.068C222.722 37.068 223.313 37.2972 223.776 37.7556C224.244 38.214 224.478 38.8 224.478 39.5136C224.478 40.2271 224.244 40.8131 223.776 41.2715C223.313 41.7299 222.722 41.9591 222.004 41.9591ZM220.962 40.6264C221.227 40.9194 221.574 41.0659 222.004 41.0659C222.434 41.0659 222.782 40.9194 223.046 40.6264C223.311 40.3335 223.443 39.9625 223.443 39.5136C223.443 39.0646 223.311 38.6936 223.046 38.4007C222.782 38.1077 222.434 37.9612 222.004 37.9612C221.574 37.9612 221.227 38.1077 220.962 38.4007C220.702 38.6936 220.572 39.0646 220.572 39.5136C220.572 39.9625 220.702 40.3335 220.962 40.6264ZM226.191 41.874H225.184V37.146H228.53V38.0321H226.191V39.0315H228.481V39.9176H226.191V41.874Z" fill="#2DBDB6"/>
<path d="M197.008 48.4386C196.167 48.4386 195.501 48.1881 195.009 47.6872L195.555 46.9216C195.961 47.3469 196.462 47.5596 197.058 47.5596C197.318 47.5596 197.518 47.51 197.66 47.4107C197.807 47.3068 197.88 47.1815 197.88 47.0351C197.88 46.9075 197.811 46.8011 197.674 46.7161C197.542 46.631 197.374 46.5696 197.171 46.5318C196.973 46.494 196.755 46.4396 196.519 46.3687C196.283 46.2978 196.063 46.2175 195.86 46.1277C195.661 46.0379 195.493 45.8962 195.356 45.7024C195.224 45.5087 195.158 45.2724 195.158 44.9936C195.158 44.5872 195.321 44.2469 195.647 43.9728C195.973 43.694 196.408 43.5546 196.951 43.5546C197.703 43.5546 198.317 43.7743 198.794 44.2138L198.234 44.951C197.861 44.6061 197.403 44.4336 196.859 44.4336C196.647 44.4336 196.481 44.4761 196.363 44.5612C196.245 44.6462 196.186 44.762 196.186 44.9085C196.186 45.0219 196.252 45.1188 196.384 45.1991C196.521 45.2747 196.689 45.3314 196.888 45.3693C197.091 45.4071 197.308 45.4638 197.54 45.5394C197.776 45.6103 197.993 45.693 198.192 45.7875C198.395 45.8773 198.563 46.0214 198.695 46.2199C198.832 46.4136 198.901 46.6475 198.901 46.9216C198.901 47.3753 198.738 47.7415 198.412 48.0204C198.09 48.2992 197.622 48.4386 197.008 48.4386ZM202.924 48.3535H199.578V43.6255H202.924V44.5115H200.585V45.511H202.875V46.3971H200.585V47.4675H202.924V48.3535ZM207.539 48.3535H206.383L205.455 46.6735H204.718V48.3535H203.711V43.6255H205.923C206.409 43.6255 206.795 43.7673 207.078 44.0508C207.366 44.3343 207.511 44.7006 207.511 45.1495C207.511 45.537 207.409 45.8513 207.206 46.0923C207.007 46.3333 206.764 46.4869 206.476 46.553L207.539 48.3535ZM205.774 45.7875C205.982 45.7875 206.152 45.7308 206.284 45.6174C206.417 45.4992 206.483 45.3433 206.483 45.1495C206.483 44.9558 206.417 44.8022 206.284 44.6888C206.152 44.5706 205.982 44.5115 205.774 44.5115H204.718V45.7875H205.774ZM210.784 48.3535H209.522L207.693 43.6255H208.842L210.153 47.2619L211.457 43.6255H212.606L210.784 48.3535ZM214.049 48.3535H213.042V43.6255H214.049V48.3535ZM217.277 48.4386C216.559 48.4386 215.959 48.2117 215.477 47.7581C214.999 47.2997 214.761 46.7113 214.761 45.993C214.761 45.2747 214.999 44.6888 215.477 44.2351C215.959 43.7767 216.559 43.5475 217.277 43.5475C218.161 43.5475 218.82 43.9326 219.255 44.7029L218.39 45.1282C218.286 44.9298 218.133 44.7667 217.929 44.6391C217.731 44.5068 217.513 44.4407 217.277 44.4407C216.847 44.4407 216.493 44.5872 216.214 44.8801C215.935 45.1731 215.796 45.5441 215.796 45.993C215.796 46.442 215.935 46.8129 216.214 47.1059C216.493 47.3989 216.847 47.5454 217.277 47.5454C217.513 47.5454 217.731 47.4816 217.929 47.354C218.133 47.2264 218.286 47.061 218.39 46.8578L219.255 47.2761C218.806 48.0511 218.147 48.4386 217.277 48.4386ZM223.2 48.3535H219.854V43.6255H223.2V44.5115H220.861V45.511H223.15V46.3971H220.861V47.4675H223.2V48.3535ZM230.209 48.3535H229.061L228.77 47.5525H226.743L226.445 48.3535H225.297L227.126 43.6255H228.388L230.209 48.3535ZM228.494 46.6665L227.757 44.632L227.02 46.6665H228.494ZM234.878 48.3535H233.907L231.653 45.27V48.3535H230.646V43.6255H231.681L233.871 46.5956V43.6255H234.878V48.3535ZM237.674 48.3535H235.81V43.6255H237.674C238.416 43.6255 239.019 43.8429 239.482 44.2776C239.95 44.7124 240.184 45.2842 240.184 45.993C240.184 46.7019 239.952 47.2737 239.489 47.7085C239.026 48.1385 238.421 48.3535 237.674 48.3535ZM237.674 47.4675C238.128 47.4675 238.487 47.3257 238.752 47.0421C239.021 46.7586 239.156 46.4089 239.156 45.993C239.156 45.5583 239.026 45.2039 238.766 44.9298C238.506 44.651 238.142 44.5115 237.674 44.5115H236.817V47.4675H237.674Z" fill="#2DBDB6"/>
<path d="M198.674 55.2197H195.328V50.4917H198.674V51.3778H196.335V52.3772H198.624V53.2633H196.335V54.3337H198.674V55.2197ZM203.749 55.2197H202.544L201.36 53.4901L200.17 55.2197H198.972L200.687 52.7955L199.078 50.4917H200.276L201.36 52.1079L202.431 50.4917H203.643L202.034 52.7884L203.749 55.2197ZM206.271 55.3048C205.552 55.3048 204.952 55.078 204.47 54.6243C203.993 54.1659 203.754 53.5776 203.754 52.8593C203.754 52.141 203.993 51.555 204.47 51.1013C204.952 50.6429 205.552 50.4137 206.271 50.4137C207.154 50.4137 207.814 50.7989 208.248 51.5691L207.384 51.9945C207.28 51.796 207.126 51.6329 206.923 51.5053C206.724 51.373 206.507 51.3069 206.271 51.3069C205.841 51.3069 205.486 51.4534 205.207 51.7464C204.929 52.0393 204.789 52.4103 204.789 52.8593C204.789 53.3082 204.929 53.6792 205.207 53.9721C205.486 54.2651 205.841 54.4116 206.271 54.4116C206.507 54.4116 206.724 54.3478 206.923 54.2202C207.126 54.0927 207.28 53.9273 207.384 53.7241L208.248 54.1423C207.799 54.9173 207.14 55.3048 206.271 55.3048ZM212.193 55.2197H208.847V50.4917H212.193V51.3778H209.854V52.3772H212.144V53.2633H209.854V54.3337H212.193V55.2197ZM215.986 55.2197H212.98V50.4917H213.987V54.3337H215.986V55.2197ZM219.696 55.2197H216.691V50.4917H217.697V54.3337H219.696V55.2197ZM223.747 55.2197H220.401V50.4917H223.747V51.3778H221.407V52.3772H223.697V53.2633H221.407V54.3337H223.747V55.2197ZM228.765 55.2197H227.794L225.54 52.1362V55.2197H224.534V50.4917H225.568L227.759 53.4618V50.4917H228.765V55.2197ZM231.987 55.3048C231.269 55.3048 230.669 55.078 230.187 54.6243C229.709 54.1659 229.471 53.5776 229.471 52.8593C229.471 52.141 229.709 51.555 230.187 51.1013C230.669 50.6429 231.269 50.4137 231.987 50.4137C232.871 50.4137 233.53 50.7989 233.965 51.5691L233.1 51.9945C232.996 51.796 232.843 51.6329 232.639 51.5053C232.441 51.373 232.224 51.3069 231.987 51.3069C231.557 51.3069 231.203 51.4534 230.924 51.7464C230.645 52.0393 230.506 52.4103 230.506 52.8593C230.506 53.3082 230.645 53.6792 230.924 53.9721C231.203 54.2651 231.557 54.4116 231.987 54.4116C232.224 54.4116 232.441 54.3478 232.639 54.2202C232.843 54.0927 232.996 53.9273 233.1 53.7241L233.965 54.1423C233.516 54.9173 232.857 55.3048 231.987 55.3048ZM237.91 55.2197H234.564V50.4917H237.91V51.3778H235.571V52.3772H237.86V53.2633H235.571V54.3337H237.91V55.2197Z" fill="#2DBDB6"/>
<path d="M196.77 26.9564L196.963 26.8273C208.377 19.4653 216.457 13.8531 216.457 8.60378C216.457 6.08796 214.246 4.45913 210.826 4.45913C208.1 4.45913 205.758 5.38643 203.864 7.22492L203.394 7.67647L201.122 4.08014L201.445 3.74954C203.748 1.43531 207.422 0 211.034 0C216.148 0 221.301 2.60452 221.301 8.41832C221.301 15.0949 213.545 21.2877 204.742 27.0128L217.134 26.7628L216.272 31.222L195.792 31.5122L196.763 26.9483L196.77 26.9564Z" fill="#003873"/>
<path d="M250.985 47.9615C250.985 50.8241 250.461 53.5899 249.429 56.1944L249.021 57.2346L247.788 55.0816L245.154 56.1138L245.67 54.8881C246.579 52.6948 247.049 50.3645 247.049 47.9615C247.049 38.3821 239.609 30.5927 230.459 30.5927C226.716 30.5927 223.18 31.8748 220.231 34.2939L219.63 34.7857L218.467 31.1894L218.374 30.8991L218.459 30.5121L221.809 14.6592H241.527L239.224 16.917L241.503 19.1989H225.622L223.827 27.6092C225.938 26.8432 228.171 26.4642 230.459 26.4642C235.943 26.4642 241.103 28.7058 244.985 32.7618C248.859 36.8177 251 42.2203 251 47.9615H250.985Z" fill="#003873"/>
<path d="M178.062 0.572266H177.739V54.4689H178.062V0.572266Z" fill="#2DBDB6"/>
</svg>
