<!DOCTYPE svg PUBLIC "-//W3C//DTD SVG 1.1//EN" "http://www.w3.org/Graphics/SVG/1.1/DTD/svg11.dtd">
<!-- Uploaded to: SVG Repo, www.svgrepo.com, Transformed by: SVG Repo Mixer Tools -->
<svg fill="#ffffff" version="1.1" id="Layer_1" xmlns="http://www.w3.org/2000/svg" xmlns:xlink="http://www.w3.org/1999/xlink" viewBox="0 0 512 512" xml:space="preserve" width="800px" height="800px" stroke="#ffffff">
<g id="SVGRepo_bgCarrier" stroke-width="0"/>
<g id="SVGRepo_tracerCarrier" stroke-linecap="round" stroke-linejoin="round"/>
<g id="SVGRepo_iconCarrier"> <g> <g> <path d="M187.912,391.947h292.131V376.17H187.912c-37.448,0-67.915,30.467-67.915,67.915c0,20.929,9.52,39.67,24.452,52.138 h-33.08V15.777h272.584c8.916,0,16.169,7.253,16.169,16.17v336.104H415.9V31.947C415.899,14.332,401.568,0,383.953,0H31.957v512 h448.086v-15.777H199.918h-12.006c-28.749,0-52.138-23.389-52.138-52.138C135.774,415.336,159.163,391.947,187.912,391.947z M95.591,496.223H79.814V479.92H64.037v16.303H47.734V15.777h16.303v16.075h15.777V15.777h15.777V496.223z"/> </g> </g> <g> <g> <rect x="192.354" y="399.98" width="15.777" height="88.352"/> </g> </g> <g> <g> <rect x="215.493" y="399.98" width="248.226" height="15.777"/> </g> </g> <g> <g> <rect x="215.493" y="424.171" width="248.226" height="15.777"/> </g> </g> <g> <g> <rect x="215.493" y="448.363" width="248.226" height="15.777"/> </g> </g> <g> <g> <rect x="215.493" y="472.554" width="248.226" height="15.777"/> </g> </g> <g> <g> <path d="M183.91,415.958v-15.777c-22.003,0-39.903,17.901-39.903,39.903v8.003c0,22.003,17.901,39.903,39.903,39.903v-15.777 c-13.302,0-24.126-10.823-24.126-24.126v-8.003C159.785,426.781,170.608,415.958,183.91,415.958z"/> </g> </g> <g> <g> <rect x="64.037" y="47.626" width="15.777" height="416.514"/> </g> </g> <g> <g> <path d="M136.003,64.03v127.827h239.878V64.03H136.003z M360.105,176.079H151.781V79.807h208.324V176.079z"/> </g> </g> <g> <g> <polygon points="159.751,87.597 159.751,111.789 175.528,111.789 175.528,103.374 336.454,103.374 336.454,111.789 352.231,111.789 352.231,87.597 "/> </g> </g> <g> <g> <polygon points="336.454,144.395 336.454,151.757 175.528,151.757 175.528,144.395 159.751,144.395 159.751,167.534 352.231,167.534 352.231,144.395 "/> </g> </g> <g> <g> <rect x="159.748" y="120.2" width="15.777" height="15.777"/> </g> </g> <g> <g> <rect x="336.451" y="120.2" width="15.777" height="15.777"/> </g> </g> <g> <g> <rect x="199.716" y="120.2" width="112.543" height="15.777"/> </g> </g> <g> <g> <rect x="135.556" y="208.552" width="136.734" height="15.777"/> </g> </g> <g> <g> <rect x="135.556" y="240.106" width="39.969" height="15.777"/> </g> </g> </g>
</svg>