<svg xmlns="http://www.w3.org/2000/svg" xmlns:xlink="http://www.w3.org/1999/xlink" width="390" height="480" viewBox="0 0 390 480">
  <defs>
    <filter id="college" x="0" y="0" width="390" height="480" filterUnits="userSpaceOnUse">
      <feOffset dy="9" input="SourceAlpha"/>
      <feGaussianBlur stdDeviation="10" result="blur"/>
      <feFlood flood-opacity="0.161"/>
      <feComposite operator="in" in2="blur"/>
      <feComposite in="SourceGraphic"/>
    </filter>
    <clipPath id="clip-path">
      <rect id="Rectangle_1804" data-name="Rectangle 1804" width="97.705" height="125.001" fill="#122e5e"/>
    </clipPath>
  </defs>
  <g id="Group_1808" data-name="Group 1808" transform="translate(-1578 -3490)">
    <g transform="matrix(1, 0, 0, 1, 1578, 3490)" filter="url(#college)">
      <rect id="college-2" data-name="college" width="330" height="420" rx="10" transform="translate(30 21)" fill="#269bff" opacity="0.198"/>
    </g>
    <text id="Johns_Hopkins_University_University_of_Adelaide_and_others" data-name="Johns Hopkins University
University of Adelaide, and others" transform="translate(1628 3806)" fill="#122e5e" font-size="21" font-family="HelveticaLTStd-Cond, Helvetica LT Std"><tspan x="0" y="15">Johns Hopkins University</tspan><tspan x="0" y="43">University of Adelaide, and </tspan><tspan x="0" y="71">others</tspan></text>
    <text id="Academic_partnerships:_" data-name="Academic partnerships: " transform="translate(1629 3684)" fill="#f04e30" font-size="55" font-family="HelveticaLTStd-BoldCond, Helvetica LT Std" font-weight="700"><tspan x="0" y="39">Academic </tspan><tspan x="0" y="94">partnerships</tspan></text>
    <g id="Group_1472" data-name="Group 1472" transform="translate(1709.147 3541.499)">
      <g id="Group_1471" data-name="Group 1471" transform="translate(0 0)" clip-path="url(#clip-path)">
        <path id="Path_22879" data-name="Path 22879" d="M52.506,0c30.779,2.648,51.969,32.481,43.209,62.613-.512,1.761-1.334,5.842-3.539,5.749-3.523-.151-.662-5.382-.147-7.238A44.932,44.932,0,0,0,71.3,10.007c-1.163,2.064,1.011,2.42.368,4.89-.425,1.636-2.776,3.723-3.19,5.107a17.64,17.64,0,0,0-.133,2.8c-.289,2.166-2.061,2.9-3.764,3.8l-.12,2.687H74.84c.33,0,2.588,1.6,3.213,1.655.667.057,2.572-1.424,3.432-1.6,2.495-.51,5.962-.015,6.393,3.018a17.623,17.623,0,0,1-.167,4.916c-.659,2.015-3.231,2.375-3.6,2.992-.4.677.106,2.162-1.09,3.478-1.817,2-4.523.614-5.622,1.283a11.962,11.962,0,0,0-1.162,2.254,39.076,39.076,0,0,0,0,6.72c.288,1.124,4.225,5.295,5.125,6.836a11.1,11.1,0,0,1,.564,6.3,2.015,2.015,0,0,1-3.058.836c-1.383-.995-.365-3.508-.87-4.988-.7-2.039-5.035-5.552-5.61-7.815a51.014,51.014,0,0,1-.1-8.656,21.173,21.173,0,0,1,1.734-3.636c1.618-2.36,3.5-1.874,6.064-1.871-.439-2.8,1.569-4.084,3.784-5.124l.121-2.689c-2.674-.279-3.89,2.145-6.7,1.693-1.159-.186-2.538-1.5-3.69-1.677-2.976-.467-7.314.52-10.182-.071a4.03,4.03,0,0,1-2.806-2.808,17.56,17.56,0,0,1,.13-5.126c.72-2.224,3.137-2.232,3.6-2.992.346-.568-.043-2.439.351-3.554.469-1.323,2.493-3.254,2.844-4.5.159-.558-.833-1.87-.833-2.812,0-1.179.942-2.194,1.175-3.292A46.3,46.3,0,0,0,37.512,5.387,16.521,16.521,0,0,0,34.2,6.474c-.334.25-.231.285-.148.613.2.769.954,1.516,1.1,2.576.253,1.842-.141,4.071.022,5.958,3.69-.254,5.022,4.444,3.278,7.062-.565.849-8.122,6.607-8.77,6.607H23.459V34.05c1.2.591,3.25,2.6,4.383,2.94,1.962.586,4.217-.637,6.1.981,1.539,1.323,1.242,3.173,1.235,4.989h5c1.28,0,3.217,2.535,2.808,3.9,2.8.035,7.24-.784,7.788,3.073a38.93,38.93,0,0,1,.027,6.331c-.336,2.787-5.886,5.16-7.691,7.2-.363,1.539.062,3.194-.147,4.735-.254,1.863-3.533,5.5-5.355,3.444s1.117-3.182,1.42-4.205c.425-1.428-.306-3.717.238-5.376.69-2.109,5.955-4.624,7.5-6.416l.125-4.878h-5c-1.091,0-3.266-2.634-2.807-3.906-4.766.4-8.565-.038-7.811-5.857H27c-.569,0-6.508-4.1-6.918-4.8-.814-1.379-.81-7.573,0-8.958,1.889-3.232,6.106-1.152,8.765-1.976,1.527-.473,4.514-3.883,6.278-4.581l.053-1.166c-5.466-.292-3.38-5.7-3.92-9.141-.128-.818-.865-1.49-.965-2.334a43.681,43.681,0,0,0-18.8,16c-.092.893,1.924,3.615,2.147,4.932.346,2.056-.306,4.876.056,6.777.156.817,4.144,2.724,5.015,3.773,2.067,2.493.663,7.592-3.06,7.333l-.015,4.728c2.935,1.654,6.941,2.921,9.7,4.742,3.668,2.417,1.344,7.3,2.033,10.9.23,1.208,3.132,2.1,1.575,4.272-1.746,2.429-5.253-1.454-5.486-3.533-.149-1.333.247-7.924-.039-8.383-2.927-1.556-7.128-2.88-9.806-4.717A4.865,4.865,0,0,1,11.931,52.9a29.584,29.584,0,0,1-.073-7.265,3.88,3.88,0,0,1,3.793-2.678,5.01,5.01,0,0,0,0-.606C15.462,41.239,11.109,39.7,10.231,38c-1.088-2.106.4-8.85-1.3-9.689A44.981,44.981,0,0,0,5.076,58.78c.371,1.687,2.334,6.709,2.289,7.73a1.983,1.983,0,0,1-3.437,1.23c-.662-.7-1.806-4.539-2.124-5.689A48.816,48.816,0,0,1,44.8.226L45.183,0Z" transform="translate(0 -0.001)" fill="#122e5e"/>
        <path id="Path_22880" data-name="Path 22880" d="M17.566,56.933a5.932,5.932,0,0,1,3.053-1.217c5.519-.554,11.931.385,17.545.024,3.274.389,5.242,3.893,7.628,5.814,2.606-1.758,4.224-5.133,7.554-5.819,7.564.45,15.955-.673,23.42-.03a5.892,5.892,0,0,1,3.287,1.228V53.151c0-.647,1.19-1.274,1.826-1.348a95.443,95.443,0,0,1,13.924,0,1.882,1.882,0,0,1,1.716,1.212l-.075,40.714A1.884,1.884,0,0,1,95.8,94.773a96.25,96.25,0,0,1-13.686.007c-.7-.064-2.064-.549-2.064-1.355V89.642a6.437,6.437,0,0,1-4.882,1.223c4.56,4.2,1.571,11.644-4.734,10.954-1.469-.162-2.255-.989-3.561-1.437-1.561,3.916-6.452,4.321-9.632,1.939-2.8,5.084-8.344,4.062-11.606.015-.789,3.365-4.647,4.989-7.807,3.777-5.659-4.061-9.943-10.174-15.144-14.879a9.655,9.655,0,0,1-5.121-1.348v3.539c0,.647-1.19,1.274-1.826,1.348a95.445,95.445,0,0,1-13.924,0A1.881,1.881,0,0,1,.1,93.559L.175,52.847A1.883,1.883,0,0,1,1.816,51.8,96.25,96.25,0,0,1,15.5,51.8c.7.064,2.064.549,2.064,1.355ZM3.9,90.862H13.66V55.713H3.9ZM93.721,55.713H83.958V90.862h9.763Zm-72.8,3.963c-.883.084-3.22,2.334-3.346,3L17.615,84.1a22.452,22.452,0,0,0,2.653,2.716c1.457.766,3.86-.018,5.224,1.611l13.185,13.664c2.58,1.7,4.587-1.526,2.807-4.027-.962-1.355-4.875-4.285-5.259-5.481a1.985,1.985,0,0,1,2.59-2.59L50.67,101.57a2.192,2.192,0,0,0,2.777-3.265L46.065,90.8a1.981,1.981,0,0,1,2.322-2.819l11.77,11.425c2.166,1.427,4.537-.764,2.913-3.158-1.223-1.8-6.855-6.124-7.319-7.569a1.979,1.979,0,0,1,2.4-2.651L70.2,97.664a2.19,2.19,0,0,0,2.664-3.394l-18.932-18.9-4.216-.076c-1.764,1.289-3.183,3.687-5.2,4.56a6.133,6.133,0,0,1-8.634-6.193c.287-3.686,4.944-6.333,7.057-9.068.054-.3-3.781-4.178-4.251-4.484a3.229,3.229,0,0,0-1.7-.5c-5.064-.474-10.916.323-16.062.067m33.2,0-1.166.542-12.683,12.7a2.012,2.012,0,0,0,0,2.689c2.462,3.175,5.848-3.459,7.988-4.223,2.164.194,6.194-.7,7.886.553l14.89,14.89a30.165,30.165,0,0,0,5.492.132c1.33-.156,2.823-2.015,3.528-3.061l.019-21c-.135-1.011-2.58-3.348-3.8-3.281Z" transform="translate(0.036 18.489)" fill="#122e5e"/>
      </g>
    </g>
  </g>
</svg>
