<svg xmlns="http://www.w3.org/2000/svg" xmlns:xlink="http://www.w3.org/1999/xlink" width="390" height="480" viewBox="0 0 390 480">
  <defs>
    <filter id="college" x="0" y="0" width="390" height="480" filterUnits="userSpaceOnUse">
      <feOffset dy="9" input="SourceAlpha"/>
      <feGaussianBlur stdDeviation="10" result="blur"/>
      <feFlood flood-opacity="0.161"/>
      <feComposite operator="in" in2="blur"/>
      <feComposite in="SourceGraphic"/>
    </filter>
    <clipPath id="clip-path">
      <rect id="Rectangle_1805" data-name="Rectangle 1805" width="106.38" height="112.63" fill="#122e5e"/>
    </clipPath>
  </defs>
  <g id="Group_1809" data-name="Group 1809" transform="translate(-170 -4019)">
    <g transform="matrix(1, 0, 0, 1, 170, 4019)" filter="url(#college)">
      <rect id="college-2" data-name="college" width="330" height="420" rx="10" transform="translate(30 21)" fill="#f7941d" opacity="0.2"/>
    </g>
    <text id="ICMR_CNMC_STS_Pierre_Fauchard_Academy_5_years_consecutively_" data-name="ICMR CNMC STS, Pierre Fauchard Academy (5 years, consecutively)" transform="translate(229 4335)" fill="#707070" font-size="21" font-family="HelveticaLTStd-Cond, Helvetica LT Std"><tspan x="0" y="15">ICMR CNMC STS, Pierre </tspan><tspan x="0" y="43">Fauchard Academy (5 years, </tspan><tspan x="0" y="71">consecutively)</tspan></text>
    <text id="Multiple_national_and_international_student_awards:" data-name="Multiple national and international student awards:" transform="translate(229 4202)" fill="#f04e30" font-size="36" font-family="HelveticaLTStd-BoldCond, Helvetica LT Std" font-weight="700"><tspan x="0" y="26">Multiple national </tspan><tspan x="0" y="66">and international </tspan><tspan x="0" y="106">student awards:</tspan></text>
    <g id="Group_1474" data-name="Group 1474" transform="translate(306.31 4072.37)">
      <g id="Group_1473" data-name="Group 1473" clip-path="url(#clip-path)">
        <path id="Path_22881" data-name="Path 22881" d="M11.636,112.63c-1.512-1-1.458-1.962-.224-3.192L45.5,83.286c2.385-5.226,4.152-10.9,6.551-16.092a11.557,11.557,0,0,1,1.577-2.708l-9.454,0A6.169,6.169,0,0,1,36.431,71.9c-1.657-.521-4.373-3.277-2.964-4.932,1.742-2.044,2.976,1.587,4.27,1.874,2.695.6,4.662-3.632,1.974-5.059-3.767-2-10.149,1.507-14.005,2.572-6.58,1.818-11.421,1.343-16.811-2.974-1.878-1.5-7.27-7.263-8.291-9.3-2.7-5.376,4.276-8.463,8.7-8.038,1.731.166,3.254,1.135,5.07.838.779-.127,1.246-.372.676-1.088-.71-.892-1.53-1.718-2.236-2.617-.616-.184-1.52,1.105-3.351.288a17.736,17.736,0,0,1-3.81-4.322,3.693,3.693,0,0,1,.079-2.661L44.54,3.622c2.568-1.477,4.111.4,5.564,2.277,1.423,1.838,2.517,3.2.458,5.271L53.3,14.354c1.823-1.636.615-4.128.774-6.259C54.4,3.739,58.843-2.536,63.5,1.077c1.5,1.161,4.945,5.583,6.135,7.276,4.271,6.075,5.241,11.264,2.277,18.245-1.6,3.772-6.123,9.6-5.73,13.568a2.747,2.747,0,1,0,5.485-.2c-.169-1.516-2.088-1.542-1.734-3.241.658-3.164,4.643-.009,5,2.381.769,5.084-4.127,8.465-8.778,6.692a44.92,44.92,0,0,1-2.2,11.209,8.427,8.427,0,0,1,4.477,1.3c4.108-4.35,10.82-1.837,10.7,4.189a5.806,5.806,0,0,1,5.486,6.166,5.8,5.8,0,0,1,5.5,7.691,5.456,5.456,0,0,1,4.182,3.96c1.917-1.085,3.367-1.458,5.255-.091a53.823,53.823,0,0,1,5.734,5.038,3.747,3.747,0,0,1,.406,4.8L81.012,110.885a3.894,3.894,0,0,1-4.2-.663c-.965-.895-3.722-5.6-4.456-6.976-.286-.538-.344-1.1-.615-1.622l-9.157.506c-1.736.262-2.16,2.876-4,2.823a1.646,1.646,0,0,1-1.494-2.149,20.282,20.282,0,0,1,3.36-3.688,9.89,9.89,0,0,1,1.866-.332c3.287-.344,8.538.048,11.391-1.361.441-.217,2.581-1.675,2.579-2.048L62.641,76.682c-.173-.218-.316.119-.408.255-.672,1-1.442,3.018-3.051,2.331-2.313-.989.3-3.818.714-5.328.6-2.156-.417-3.732,1.853-4.962a4.82,4.82,0,0,1,5.623.775c1.75,1.467,2.663,4.54,5.366,2.739,1.566-1.043,2.067-2.342.893-3.941a73.294,73.294,0,0,0-6.592-7.039c-2.572-2.148-4.439-.992-6.6.879-1.571,1.36-3.146,3.15-4.578,4.656L48.224,85.352,17.132,109.332H50.439c.451,0,1.782-2.863,3.623-2.083,2.814,1.191-1.358,4.269-2.194,5.382ZM61.684,3.883c-1.155-.988-1.954-.324-2.78.693-2.343,2.883-.926,5.6-1.377,8.736-.213,1.475-1.143,2.546-1.89,3.756,3.231,3.857,6.127,7.707,8.051,12.4.359.876.541,2.006.91,2.827.117.259-.1.4.457.308,2.012-4.439,5.573-8.8,5.275-13.957a17,17,0,0,0-2.451-7,57.678,57.678,0,0,0-6.2-7.765M48.13,9.077c.141-.191-1.612-2.653-2.2-2.317L8.987,37.986l1.88,2.309c1.154-.845,5-4.78,6.151-4.807a1.741,1.741,0,0,1,1.489,2.56c-.339.771-3.227,2.358-3.114,2.99,3.846,4.259,7.232,9.541,11.748,13.109a35.983,35.983,0,0,0,22.43,7.268,47.756,47.756,0,0,0,7.9-.895,25.266,25.266,0,0,0,2.542-2.075c.57-.73,1.866-5.9,2.122-7.111a35.5,35.5,0,0,0-2.161-22.1c-2.753-6.043-7.769-10.455-11.649-15.72l-.63.08L23.929,33.574a1.539,1.539,0,0,1-2.28-.538c-.822-1.251.111-1.9.976-2.742,7.578-7.342,17.2-13.681,24.961-21a.929.929,0,0,1,.544-.217M31.422,60.963c-1.593-1.282-3.464-2.133-5.126-3.336a37.969,37.969,0,0,1-8.51-8.753A8.705,8.705,0,0,1,13.5,50.366c-3.192.027-4.711-2.046-8.443-.261-1.962.937-2.107,1.608-.9,3.271,1.916,2.631,5.9,7.07,8.643,8.726,6.643,4.018,12.012.822,18.614-1.139M72.7,59.472c-.425.082-1.77.872-1.684,1.352L74.4,64.479c2.434-1.634,1.243-5.572-1.7-5.007m1.815,16a7.893,7.893,0,0,0,1.982-1.424,42.754,42.754,0,0,0,4.357-4.217A2.539,2.539,0,0,0,77.437,66.2c-1.43.812-.045,1.674.134,3.029.41,3.107-1.108,4.272-3.059,6.245M65.2,72.255a1.981,1.981,0,0,0-1.68-.516l.2.784L79.016,93.242l1.652-1.493a5.723,5.723,0,0,1-2.638-6.818,5.694,5.694,0,0,1-4.4-5.937,5.17,5.17,0,0,1-1.807-.282c-2.789-.9-4.38-4.564-6.624-6.457M83.9,72a5.193,5.193,0,0,0-1.478.941,47.475,47.475,0,0,0-5.017,4.876A2.5,2.5,0,0,0,80.645,81.5a36.121,36.121,0,0,0,4.2-3.71,15.688,15.688,0,0,0,1.948-2.01A2.612,2.612,0,0,0,83.9,72m4.62,7.478a3.436,3.436,0,0,0-1.371.608,65.621,65.621,0,0,0-5.262,4.851c-1.632,1.943-.482,4.665,2.072,4.274l7.016-5.958a2.572,2.572,0,0,0-2.455-3.775m8.359,3.287-21.6,17.989.013.868c.9.933,3.033,5.633,3.839,6.072a.537.537,0,0,0,.5.064L103,88.232c.242-.438-1.079-1.535-1.442-1.877a43.869,43.869,0,0,0-3.752-3.282,1.123,1.123,0,0,0-.924-.3" transform="translate(0 0)" fill="#122e5e"/>
        <path id="Path_22882" data-name="Path 22882" d="M60.933,48.332l5.244,4.321C68.6,57.04,61.007,56.168,58.7,57.5c-.679.591-1.938,5.05-2.6,6.2a2.049,2.049,0,0,1-3.218.491c-.9-.859-3.01-5.737-3.639-6.034-1.869-.64-6.112-.009-7.587-.987-2.95-1.957,3.026-6.075,4.033-7.848-.064-1.858-2.286-6.615-1.293-8.1,1.524-2.28,6.459,1.613,8.476,1.9.856-.011,4.579-2.905,5.823-3.422,4.623-1.923,2.14,6.528,2.236,8.641m.62,5.1c.339-.326-2.134-2.036-2.42-2.3a9.5,9.5,0,0,1-1.491-1.587c-.409-1.38.35-4.055.393-5.56L53.057,46.77l-4.912-1.914c-.025,2.083,1.8,4.272.534,6.139-.644.95-1.929,1.966-2.625,2.872-.169.22-.426.278-.327.659,1.269.113,4.505-.068,5.483.563.742.479,2.015,3.31,2.6,4.212.138.215-.024.392.49.283.417-1.222,1.263-4.423,2.305-5.063,1.1-.677,3.635-.777,4.951-1.094" transform="translate(-8.368 -8.073)" fill="#122e5e"/>
      </g>
    </g>
  </g>
</svg>
