<svg xmlns="http://www.w3.org/2000/svg" xmlns:xlink="http://www.w3.org/1999/xlink" width="180.464" height="180.81" viewBox="0 0 180.464 180.81">
  <defs>
    <clipPath id="clip-path">
      <rect id="Rectangle_650" data-name="Rectangle 650" width="180.464" height="180.81" fill="#58595b"/>
    </clipPath>
  </defs>
  <g id="Group_469" data-name="Group 469" transform="translate(0 0)" opacity="0.194" style="mix-blend-mode: multiply;isolation: isolate">
    <g id="Group_468" data-name="Group 468" transform="translate(0 0)" clip-path="url(#clip-path)">
      <path id="Path_4441" data-name="Path 4441" d="M85.776.152a89.06,89.06,0,0,1,38.431,6.555c1.953.8,6.765,2.726,8.235,3.879a3.339,3.339,0,0,1-2.329,6c-1.321-.136-7.192-3.439-9.137-4.224C64.443-10.462.663,35.72,6.316,96.737c4.742,51.183,47.723,84.284,98.606,76,56.78-9.245,85.1-72.063,58.943-122.128-.38-3.067,2.728-5.327,5.321-3.277,1.451,1.148,4.82,9.571,5.614,11.747,23.774,65.073-30.772,131.558-99.12,120.522C-29.863,162.558-23.647,7.063,85.776.152" transform="translate(0 0.001)" fill="#58595b"/>
      <path id="Path_4442" data-name="Path 4442" d="M104.975,26.252a4.249,4.249,0,0,1-1.723.926c-1.776.261-7.725-3.18-10.052-4.036C41.961,4.284-3.7,66.452,32.032,109.748c40.015,48.485,116.822,1.932,92.927-56.588-1.012-2.484-4.492-6.571-1.96-8.885,4.371-4,7.548,5.366,8.654,8.25,17.037,44.444-20.055,90.469-67,82.75-68.378-11.246-68.4-109.636,0-120.882a59.6,59.6,0,0,1,34.383,4.125c2.631,1.159,9.416,3.935,5.94,7.734" transform="translate(15.48 15.649)" fill="#58595b"/>
      <path id="Path_4443" data-name="Path 4443" d="M111.637,19.574l14.158.984c2.914.6,4.093,3.089,2.213,5.491L103.182,50.482l-16.975-.818-41.576,41.2a3.285,3.285,0,0,1-3.654-5.271L81.547,45c.36-5.66-1.353-11.591-.693-17.253L105.161,3.2a3.088,3.088,0,0,1,5.066,1.023c1.056,4.969,1.008,10.253,1.41,15.347M118.1,26.44c-2.489-.216-9.983.073-11.7-1.425-1.813-1.58-1.213-9.446-1.824-11.9L87.621,30.077c-.578,4.285.468,8.626.6,12.915l12.915.6Z" transform="translate(46.498 2.671)" fill="#58595b"/>
      <path id="Path_4444" data-name="Path 4444" d="M84.011,47.689c2.806-2.8,5.327.3,6.145,3.117C96.8,73.7,76.029,95.095,53.118,91.075c-36.991-6.491-34.269-61.466,3.529-64.087,3.367-.235,14.566-.026,14.76,4.645.244,5.83-7.607,2.083-10.78,1.861A25.8,25.8,0,0,0,33.544,63.811c5.509,31.748,53.7,25.747,51.108-6.7-.214-2.685-2.616-7.451-.641-9.426" transform="translate(31.035 31.196)" fill="#58595b"/>
    </g>
  </g>
</svg>
