<svg xmlns="http://www.w3.org/2000/svg" xmlns:xlink="http://www.w3.org/1999/xlink" width="225.573" height="171.001" viewBox="0 0 225.573 171.001">
  <defs>
    <clipPath id="clip-path">
      <rect id="Rectangle_649" data-name="Rectangle 649" width="225.573" height="171.001" fill="#58595b"/>
    </clipPath>
  </defs>
  <g id="Group_467" data-name="Group 467" opacity="0.701" style="mix-blend-mode: multiply;isolation: isolate">
    <g id="Group_466" data-name="Group 466" transform="translate(0 0)" clip-path="url(#clip-path)">
      <path id="Path_4435" data-name="Path 4435" d="M102.11,15.349c46.2-3.025,89.4,15.815,116.311,53.564,1.691,2.37,5.828,7.983,6.749,10.366,1.013,2.624-.062,3.863-1.216,6.057-14.527,27.592-48.451,50.639-78.227,58.212-53.477,13.6-116.55-8.814-143.917-57.9C.677,83.612-.518,82.106.236,79.62c.577-1.893,5.451-8.655,6.916-10.708C28.775,38.586,64.623,17.8,102.11,15.349m2.014,8.055C65.321,25.736,28.716,47.98,8.781,81.126c36.148,61.26,119.885,76.734,176.953,34.462a126.518,126.518,0,0,0,31.015-33.926c-22.831-39.675-67.078-61-112.625-58.258" transform="translate(0 23.533)" fill="#58595b"/>
      <path id="Path_4436" data-name="Path 4436" d="M14.41,6.324A4.946,4.946,0,0,1,18.274,7.8,202.132,202.132,0,0,1,30.58,24.191c2.142,4.276-2,8.091-6,5.5L11.016,10.987c-.333-1.816,1.667-4.356,3.394-4.664" transform="translate(17.187 9.83)" fill="#58595b"/>
      <path id="Path_4437" data-name="Path 4437" d="M84.612,6.326c2.842-.472,5.726,3.173,4.261,5.816L75.706,29.686a4.157,4.157,0,0,1-6.2-5.192c4.323-4.323,8.258-12.806,12.5-16.7a6.591,6.591,0,0,1,2.6-1.467" transform="translate(108.104 9.837)" fill="#58595b"/>
      <path id="Path_4438" data-name="Path 4438" d="M46.035.052A4.084,4.084,0,0,1,50.7,3.733c.462,3.958.557,17.359-.041,21.128-.731,4.623-7.416,4.761-8.037-.464-.467-3.925-.552-17.375.046-21.125A4.09,4.09,0,0,1,46.035.052" transform="translate(66.126 -0.001)" fill="#58595b"/>
      <path id="Path_4439" data-name="Path 4439" d="M121.856,70.379A48.374,48.374,0,1,1,73.482,22a48.376,48.376,0,0,1,48.374,48.377m-8.165.013A40.209,40.209,0,1,0,73.482,110.6a40.209,40.209,0,0,0,40.209-40.209" transform="translate(39.302 34.44)" fill="#58595b"/>
      <path id="Path_4440" data-name="Path 4440" d="M82.965,55.642A24.22,24.22,0,1,1,58.743,31.42,24.22,24.22,0,0,1,82.965,55.642m-8.181.013A16.043,16.043,0,1,0,58.741,71.7,16.043,16.043,0,0,0,74.784,55.655" transform="translate(54.041 49.182)" fill="#58595b"/>
    </g>
  </g>
</svg>
